@startuml
skinparam componentStyle rectangle
skinparam shadowing false

' PRESENTATION LAYER
rectangle "Presentation Layer" #DDDDFF {
    component BlazorComponents as Blazor
    interface IAppLogic
    Blazor --> IAppLogic
}

' LOGIC
rectangle "Logic" #DDFFDD {
    IAppLogic -- AppLogic

    interface UploadService
    interface IHarvestDBSSuggestion
    interface IUserSuggestion
    interface IProfileMgm
    interface ILeaderboard
    interface IMatchmgm

    component AppLogic {
        AppLogic --> UploadService
        AppLogic --> IHarvestDBSSuggestion
        AppLogic --> IUserSuggestion
        AppLogic --> IProfileMgm
        AppLogic --> ILeaderboard
        AppLogic --> IMatchmgm
    }

    component "Harvest Upload" as hUpload {
        UploadService -- hUpload
    }

    component "Harvest Suggestion" as HSugg {
        IHarvestDBSSuggestion -- HSugg
    }
    
    component "MatchManager" as MatchMgm {
        IMatchmgm -- MatchMgm
        
    }
    
    

    component "User Suggestion" as UserSugg {
        IUserSuggestion -- UserSugg
    }

    component "Profile  Managment" as PM {
        IProfileMgm -- PM
    }
    
    component Leaderboard
    
    ILeaderboard -- Leaderboard
    
}

' INFRASTRUCTURE LAYER
rectangle "Infrastructure" #CCEEFF {
    component Databasemanagement as DBM
    interface IPreferencesDBS
    interface IUploadDBS
    interface IHarvestDBS
    interface IUserDBS
    interface IProfilDBS
    interface IMatchesDBS

    IPreferencesDBS -- DBM
    IUploadDBS -- DBM
    IHarvestDBS -- DBM
    IUserDBS -- DBM
    IProfilDBS -- DBM
    ILeaderboardDBS -- DBM
    IMatchesDBS -- DBM
    
}

MatchMgm --> IMatchesDBS
hUpload --> IUploadDBS
HSugg --> IHarvestDBS
HSugg ->  UserSugg
UserSugg -> MatchMgm
MatchMgm -> Leaderboard
UserSugg --> IUserDBS
UserSugg --> IPreferencesDBS
PM --> IPreferencesDBS
HSugg --> IPreferencesDBS
PM --> IProfilDBS
Leaderboard --> ILeaderboardDBS
MatchMgm --> IProfilDBS

@enduml
